<?xml version="1.0" encoding="iso-8859-1"?>
<!-- Uploaded to: SVG Repo, www.svgrepo.com, Generator: SVG Repo Mixer Tools -->
<svg version="1.1" id="Layer_1" xmlns="http://www.w3.org/2000/svg" xmlns:xlink="http://www.w3.org/1999/xlink" 
	 viewBox="0 0 512 512" xml:space="preserve">
<g>
	<circle style="fill:#00000A;" cx="187.056" cy="88.72" r="88.72"/>
	<path style="fill:#00000A;" d="M182.864,383.584l-85.704-185.8c0,0-89.904,1.2-89.904,83.912v101.888L182.864,383.584
		L182.864,383.584z"/>
	<path style="fill:#00000A;" d="M191.256,383.584l85.704-185.8c0,0,89.904,1.2,89.904,83.912v101.888L191.256,383.584
		L191.256,383.584z"/>
</g>
<g>
	<polygon style="fill:#E21B1B;" points="187.056,197.784 125.328,197.784 187.056,334.44 248.792,197.784 	"/>
	<circle style="fill:#E21B1B;" cx="388.744" cy="396" r="116"/>
</g>
<g>
	
		<rect x="324.061" y="383.992" transform="matrix(0.7071 -0.7071 0.7071 0.7071 -166.1363 390.8957)" style="fill:#FFFFFF;" width="129.447" height="24"/>
	
		<rect x="376.802" y="331.246" transform="matrix(0.7071 -0.7071 0.7071 0.7071 -166.1153 390.9011)" style="fill:#FFFFFF;" width="24" height="129.447"/>
</g>
</svg>